# xmcd CD database file
#
# Track frame offsets:
#	150
#	15066
#	37621
#	66259
#	90589
#	113733
#	133731
#	151820
#	172655
#	187245
#	208065
#	227783
#	245216
#
# Disc length: 3967 seconds
#
# Revision: 0
# Processed by: cddbd v1.4PL0 Copyright (c) Steve Scherf et al.
# Submitted via: CDex 1.40Beta9
#
DISCID=a00f7d0d
DTITLE=Manantial - La Puerta azul
DYEAR=1997
DGENRE=Native American
TTITLE0=La puerrta azul
TTITLE1=Dos aguas
TTITLE2=Amor mio
TTITLE3=Valle del alto
TTITLE4=Cuando los angeles lloran
TTITLE5=Danza de verano
TTITLE6=Lluvia de amor
TTITLE7=Oye mi amor
TTITLE8=Caminito del llamas
TTITLE9=Samba pa 'ti
TTITLE10=Amor de tres
TTITLE11=La partida
TTITLE12=Llaqui runa
EXTD=YEAR: 1997 ID3G: 64
EXTT0=
EXTT1=
EXTT2=
EXTT3=
EXTT4=
EXTT5=
EXTT6=
EXTT7=
EXTT8=
EXTT9=
EXTT10=
EXTT11=
EXTT12=
PLAYORDER=
